<mxfile host="app.diagrams.net" agent="Mozilla/5.0 (Windows NT 10.0; Win64; x64) AppleWebKit/537.36 (KHTML, like Gecko) Chrome/134.0.0.0 Safari/537.36" version="26.1.1">
  <diagram name="Page-1" id="5f0bae14-7c28-e335-631c-24af17079c00">
    <mxGraphModel dx="-834" dy="709" grid="1" gridSize="10" guides="1" tooltips="1" connect="1" arrows="1" fold="1" page="1" pageScale="1" pageWidth="1100" pageHeight="850" background="none" math="0" shadow="0">
      <root>
        <mxCell id="0" />
        <mxCell id="1" parent="0" />
        <mxCell id="Nb-623n4n7A27UwxZiqx-445" value="" style="html=1;dropTarget=0;whiteSpace=wrap;" vertex="1" parent="1">
          <mxGeometry x="2570" y="20" width="710" height="820" as="geometry" />
        </mxCell>
        <mxCell id="Nb-623n4n7A27UwxZiqx-446" value="" style="shape=module;jettyWidth=8;jettyHeight=4;" vertex="1" parent="Nb-623n4n7A27UwxZiqx-445">
          <mxGeometry x="1" width="20" height="20" relative="1" as="geometry">
            <mxPoint x="-27" y="7" as="offset" />
          </mxGeometry>
        </mxCell>
        <mxCell id="Nb-623n4n7A27UwxZiqx-368" value="" style="fontStyle=1;align=center;verticalAlign=top;childLayout=stackLayout;horizontal=1;horizontalStack=0;resizeParent=1;resizeParentMax=0;resizeLast=0;marginBottom=0;" vertex="1" parent="1">
          <mxGeometry x="2720" y="590" width="220" height="161" as="geometry" />
        </mxCell>
        <mxCell id="Nb-623n4n7A27UwxZiqx-369" value="&amp;lt;&amp;lt;component&amp;gt;&amp;gt;&lt;div&gt;:&lt;b&gt;CommonProtocol&lt;/b&gt;&lt;/div&gt;" style="html=1;align=left;spacingLeft=4;verticalAlign=top;strokeColor=none;fillColor=none;whiteSpace=wrap;" vertex="1" parent="Nb-623n4n7A27UwxZiqx-368">
          <mxGeometry width="220" height="40" as="geometry" />
        </mxCell>
        <mxCell id="Nb-623n4n7A27UwxZiqx-370" value="" style="shape=module;jettyWidth=10;jettyHeight=4;" vertex="1" parent="Nb-623n4n7A27UwxZiqx-369">
          <mxGeometry x="1" width="16" height="20" relative="1" as="geometry">
            <mxPoint x="-25" y="9" as="offset" />
          </mxGeometry>
        </mxCell>
        <mxCell id="Nb-623n4n7A27UwxZiqx-371" value="" style="line;strokeWidth=1;fillColor=none;align=left;verticalAlign=middle;spacingTop=-1;spacingLeft=3;spacingRight=3;rotatable=0;labelPosition=right;points=[];portConstraint=eastwest;" vertex="1" parent="Nb-623n4n7A27UwxZiqx-368">
          <mxGeometry y="40" width="220" height="8" as="geometry" />
        </mxCell>
        <mxCell id="Nb-623n4n7A27UwxZiqx-372" value="provided interfaces" style="html=1;align=center;spacingLeft=4;verticalAlign=top;strokeColor=none;fillColor=none;whiteSpace=wrap;" vertex="1" parent="Nb-623n4n7A27UwxZiqx-368">
          <mxGeometry y="48" width="220" height="25" as="geometry" />
        </mxCell>
        <mxCell id="Nb-623n4n7A27UwxZiqx-373" value="Interface1" style="html=1;align=left;spacingLeft=4;verticalAlign=top;strokeColor=none;fillColor=none;whiteSpace=wrap;" vertex="1" parent="Nb-623n4n7A27UwxZiqx-368">
          <mxGeometry y="73" width="220" height="25" as="geometry" />
        </mxCell>
        <mxCell id="Nb-623n4n7A27UwxZiqx-374" value="" style="line;strokeWidth=1;fillColor=none;align=left;verticalAlign=middle;spacingTop=-1;spacingLeft=3;spacingRight=3;rotatable=0;labelPosition=right;points=[];portConstraint=eastwest;" vertex="1" parent="Nb-623n4n7A27UwxZiqx-368">
          <mxGeometry y="98" width="220" height="8" as="geometry" />
        </mxCell>
        <mxCell id="Nb-623n4n7A27UwxZiqx-375" value="required interfaces" style="html=1;align=center;spacingLeft=4;verticalAlign=top;strokeColor=none;fillColor=none;whiteSpace=wrap;" vertex="1" parent="Nb-623n4n7A27UwxZiqx-368">
          <mxGeometry y="106" width="220" height="25" as="geometry" />
        </mxCell>
        <mxCell id="Nb-623n4n7A27UwxZiqx-376" value="Interface2" style="html=1;align=left;spacingLeft=4;verticalAlign=top;strokeColor=none;fillColor=none;whiteSpace=wrap;" vertex="1" parent="Nb-623n4n7A27UwxZiqx-368">
          <mxGeometry y="131" width="220" height="30" as="geometry" />
        </mxCell>
        <mxCell id="Nb-623n4n7A27UwxZiqx-377" value="" style="fontStyle=1;align=center;verticalAlign=top;childLayout=stackLayout;horizontal=1;horizontalStack=0;resizeParent=1;resizeParentMax=0;resizeLast=0;marginBottom=0;" vertex="1" parent="1">
          <mxGeometry x="2220" y="320" width="210" height="161" as="geometry" />
        </mxCell>
        <mxCell id="Nb-623n4n7A27UwxZiqx-378" value="&amp;lt;&amp;lt;component&amp;gt;&amp;gt;&lt;div&gt;:&lt;b&gt;Core&lt;/b&gt;&lt;/div&gt;" style="html=1;align=left;spacingLeft=4;verticalAlign=top;strokeColor=none;fillColor=none;whiteSpace=wrap;" vertex="1" parent="Nb-623n4n7A27UwxZiqx-377">
          <mxGeometry width="210" height="40" as="geometry" />
        </mxCell>
        <mxCell id="Nb-623n4n7A27UwxZiqx-379" value="" style="shape=module;jettyWidth=10;jettyHeight=4;" vertex="1" parent="Nb-623n4n7A27UwxZiqx-378">
          <mxGeometry x="1" width="16" height="20" relative="1" as="geometry">
            <mxPoint x="-25" y="9" as="offset" />
          </mxGeometry>
        </mxCell>
        <mxCell id="Nb-623n4n7A27UwxZiqx-380" value="" style="line;strokeWidth=1;fillColor=none;align=left;verticalAlign=middle;spacingTop=-1;spacingLeft=3;spacingRight=3;rotatable=0;labelPosition=right;points=[];portConstraint=eastwest;" vertex="1" parent="Nb-623n4n7A27UwxZiqx-377">
          <mxGeometry y="40" width="210" height="8" as="geometry" />
        </mxCell>
        <mxCell id="Nb-623n4n7A27UwxZiqx-381" value="provided interfaces" style="html=1;align=center;spacingLeft=4;verticalAlign=top;strokeColor=none;fillColor=none;whiteSpace=wrap;" vertex="1" parent="Nb-623n4n7A27UwxZiqx-377">
          <mxGeometry y="48" width="210" height="25" as="geometry" />
        </mxCell>
        <mxCell id="Nb-623n4n7A27UwxZiqx-382" value="Interface1" style="html=1;align=left;spacingLeft=4;verticalAlign=top;strokeColor=none;fillColor=none;whiteSpace=wrap;" vertex="1" parent="Nb-623n4n7A27UwxZiqx-377">
          <mxGeometry y="73" width="210" height="25" as="geometry" />
        </mxCell>
        <mxCell id="Nb-623n4n7A27UwxZiqx-383" value="" style="line;strokeWidth=1;fillColor=none;align=left;verticalAlign=middle;spacingTop=-1;spacingLeft=3;spacingRight=3;rotatable=0;labelPosition=right;points=[];portConstraint=eastwest;" vertex="1" parent="Nb-623n4n7A27UwxZiqx-377">
          <mxGeometry y="98" width="210" height="8" as="geometry" />
        </mxCell>
        <mxCell id="Nb-623n4n7A27UwxZiqx-384" value="required interfaces" style="html=1;align=center;spacingLeft=4;verticalAlign=top;strokeColor=none;fillColor=none;whiteSpace=wrap;" vertex="1" parent="Nb-623n4n7A27UwxZiqx-377">
          <mxGeometry y="106" width="210" height="25" as="geometry" />
        </mxCell>
        <mxCell id="Nb-623n4n7A27UwxZiqx-385" value="Interface2" style="html=1;align=left;spacingLeft=4;verticalAlign=top;strokeColor=none;fillColor=none;whiteSpace=wrap;" vertex="1" parent="Nb-623n4n7A27UwxZiqx-377">
          <mxGeometry y="131" width="210" height="30" as="geometry" />
        </mxCell>
        <mxCell id="Nb-623n4n7A27UwxZiqx-386" value="" style="fontStyle=1;align=center;verticalAlign=top;childLayout=stackLayout;horizontal=1;horizontalStack=0;resizeParent=1;resizeParentMax=0;resizeLast=0;marginBottom=0;" vertex="1" parent="1">
          <mxGeometry x="2720" y="56" width="210" height="161" as="geometry" />
        </mxCell>
        <mxCell id="Nb-623n4n7A27UwxZiqx-387" value="&amp;lt;&amp;lt;component&amp;gt;&amp;gt;&lt;div&gt;:&lt;b&gt;Common&lt;/b&gt;&lt;/div&gt;" style="html=1;align=left;spacingLeft=4;verticalAlign=top;strokeColor=none;fillColor=none;whiteSpace=wrap;" vertex="1" parent="Nb-623n4n7A27UwxZiqx-386">
          <mxGeometry width="210" height="40" as="geometry" />
        </mxCell>
        <mxCell id="Nb-623n4n7A27UwxZiqx-388" value="" style="shape=module;jettyWidth=10;jettyHeight=4;" vertex="1" parent="Nb-623n4n7A27UwxZiqx-387">
          <mxGeometry x="1" width="16" height="20" relative="1" as="geometry">
            <mxPoint x="-25" y="9" as="offset" />
          </mxGeometry>
        </mxCell>
        <mxCell id="Nb-623n4n7A27UwxZiqx-389" value="" style="line;strokeWidth=1;fillColor=none;align=left;verticalAlign=middle;spacingTop=-1;spacingLeft=3;spacingRight=3;rotatable=0;labelPosition=right;points=[];portConstraint=eastwest;" vertex="1" parent="Nb-623n4n7A27UwxZiqx-386">
          <mxGeometry y="40" width="210" height="8" as="geometry" />
        </mxCell>
        <mxCell id="Nb-623n4n7A27UwxZiqx-390" value="provided interfaces" style="html=1;align=center;spacingLeft=4;verticalAlign=top;strokeColor=none;fillColor=none;whiteSpace=wrap;" vertex="1" parent="Nb-623n4n7A27UwxZiqx-386">
          <mxGeometry y="48" width="210" height="25" as="geometry" />
        </mxCell>
        <mxCell id="Nb-623n4n7A27UwxZiqx-391" value="Interface1" style="html=1;align=left;spacingLeft=4;verticalAlign=top;strokeColor=none;fillColor=none;whiteSpace=wrap;" vertex="1" parent="Nb-623n4n7A27UwxZiqx-386">
          <mxGeometry y="73" width="210" height="25" as="geometry" />
        </mxCell>
        <mxCell id="Nb-623n4n7A27UwxZiqx-392" value="" style="line;strokeWidth=1;fillColor=none;align=left;verticalAlign=middle;spacingTop=-1;spacingLeft=3;spacingRight=3;rotatable=0;labelPosition=right;points=[];portConstraint=eastwest;" vertex="1" parent="Nb-623n4n7A27UwxZiqx-386">
          <mxGeometry y="98" width="210" height="8" as="geometry" />
        </mxCell>
        <mxCell id="Nb-623n4n7A27UwxZiqx-393" value="required interfaces" style="html=1;align=center;spacingLeft=4;verticalAlign=top;strokeColor=none;fillColor=none;whiteSpace=wrap;" vertex="1" parent="Nb-623n4n7A27UwxZiqx-386">
          <mxGeometry y="106" width="210" height="25" as="geometry" />
        </mxCell>
        <mxCell id="Nb-623n4n7A27UwxZiqx-394" value="Interface2" style="html=1;align=left;spacingLeft=4;verticalAlign=top;strokeColor=none;fillColor=none;whiteSpace=wrap;" vertex="1" parent="Nb-623n4n7A27UwxZiqx-386">
          <mxGeometry y="131" width="210" height="30" as="geometry" />
        </mxCell>
        <mxCell id="Nb-623n4n7A27UwxZiqx-395" value="&lt;p style=&quot;margin:0px;margin-top:6px;text-align:center;&quot;&gt;&amp;lt;&amp;lt;component&amp;gt;&amp;gt;&lt;/p&gt;&lt;p style=&quot;margin:0px;margin-top:6px;text-align:center;&quot;&gt;&lt;b&gt;:AGV&lt;/b&gt;&lt;/p&gt;&lt;hr size=&quot;1&quot; style=&quot;border-style:solid;&quot;&gt;&lt;p style=&quot;margin:0px;margin-left:8px;&quot;&gt;+ Attribute1: Type&lt;br&gt;+ Attribute2: Type&lt;/p&gt;" style="align=left;overflow=fill;html=1;dropTarget=0;whiteSpace=wrap;" vertex="1" parent="1">
          <mxGeometry x="3070" y="170" width="180" height="90" as="geometry" />
        </mxCell>
        <mxCell id="Nb-623n4n7A27UwxZiqx-396" value="" style="shape=component;jettyWidth=8;jettyHeight=4;" vertex="1" parent="Nb-623n4n7A27UwxZiqx-395">
          <mxGeometry x="1" width="20" height="20" relative="1" as="geometry">
            <mxPoint x="-24" y="4" as="offset" />
          </mxGeometry>
        </mxCell>
        <mxCell id="Nb-623n4n7A27UwxZiqx-397" value="&lt;p style=&quot;margin:0px;margin-top:6px;text-align:center;&quot;&gt;&amp;lt;&amp;lt;component&amp;gt;&amp;gt;&lt;/p&gt;&lt;p style=&quot;margin:0px;margin-top:6px;text-align:center;&quot;&gt;&lt;b&gt;:AssemblyStation&lt;/b&gt;&lt;/p&gt;&lt;hr size=&quot;1&quot; style=&quot;border-style:solid;&quot;&gt;&lt;p style=&quot;margin:0px;margin-left:8px;&quot;&gt;+ Attribute1: Type&lt;br&gt;+ Attribute2: Type&lt;/p&gt;" style="align=left;overflow=fill;html=1;dropTarget=0;whiteSpace=wrap;" vertex="1" parent="1">
          <mxGeometry x="3070" y="280" width="180" height="90" as="geometry" />
        </mxCell>
        <mxCell id="Nb-623n4n7A27UwxZiqx-398" value="" style="shape=component;jettyWidth=8;jettyHeight=4;" vertex="1" parent="Nb-623n4n7A27UwxZiqx-397">
          <mxGeometry x="1" width="20" height="20" relative="1" as="geometry">
            <mxPoint x="-24" y="4" as="offset" />
          </mxGeometry>
        </mxCell>
        <mxCell id="Nb-623n4n7A27UwxZiqx-399" value="&lt;p style=&quot;margin:0px;margin-top:6px;text-align:center;&quot;&gt;&amp;lt;&amp;lt;component&amp;gt;&amp;gt;&lt;/p&gt;&lt;p style=&quot;margin:0px;margin-top:6px;text-align:center;&quot;&gt;&lt;b&gt;:Warehouse&lt;/b&gt;&lt;/p&gt;&lt;hr size=&quot;1&quot; style=&quot;border-style:solid;&quot;&gt;&lt;p style=&quot;margin:0px;margin-left:8px;&quot;&gt;+ Attribute1: Type&lt;br&gt;+ Attribute2: Type&lt;/p&gt;" style="align=left;overflow=fill;html=1;dropTarget=0;whiteSpace=wrap;" vertex="1" parent="1">
          <mxGeometry x="3070" y="390" width="180" height="90" as="geometry" />
        </mxCell>
        <mxCell id="Nb-623n4n7A27UwxZiqx-400" value="" style="shape=component;jettyWidth=8;jettyHeight=4;" vertex="1" parent="Nb-623n4n7A27UwxZiqx-399">
          <mxGeometry x="1" width="20" height="20" relative="1" as="geometry">
            <mxPoint x="-24" y="4" as="offset" />
          </mxGeometry>
        </mxCell>
        <mxCell id="Nb-623n4n7A27UwxZiqx-401" value="&lt;p style=&quot;margin:0px;margin-top:6px;text-align:center;&quot;&gt;&amp;lt;&amp;lt;component&amp;gt;&amp;gt;&lt;/p&gt;&lt;p style=&quot;margin:0px;margin-top:6px;text-align:center;&quot;&gt;&lt;b&gt;:MQTT&lt;/b&gt;&lt;/p&gt;&lt;hr size=&quot;1&quot; style=&quot;border-style:solid;&quot;&gt;&lt;p style=&quot;margin:0px;margin-left:8px;&quot;&gt;+ Attribute1: Type&lt;br&gt;+ Attribute2: Type&lt;/p&gt;" style="align=left;overflow=fill;html=1;dropTarget=0;whiteSpace=wrap;" vertex="1" parent="1">
          <mxGeometry x="3070" y="514" width="180" height="90" as="geometry" />
        </mxCell>
        <mxCell id="Nb-623n4n7A27UwxZiqx-402" value="" style="shape=component;jettyWidth=8;jettyHeight=4;" vertex="1" parent="Nb-623n4n7A27UwxZiqx-401">
          <mxGeometry x="1" width="20" height="20" relative="1" as="geometry">
            <mxPoint x="-24" y="4" as="offset" />
          </mxGeometry>
        </mxCell>
        <mxCell id="Nb-623n4n7A27UwxZiqx-403" value="&lt;p style=&quot;margin:0px;margin-top:6px;text-align:center;&quot;&gt;&amp;lt;&amp;lt;component&amp;gt;&amp;gt;&lt;/p&gt;&lt;p style=&quot;margin:0px;margin-top:6px;text-align:center;&quot;&gt;&lt;b&gt;:REST&lt;/b&gt;&lt;/p&gt;&lt;hr size=&quot;1&quot; style=&quot;border-style:solid;&quot;&gt;&lt;p style=&quot;margin:0px;margin-left:8px;&quot;&gt;+ Attribute1: Type&lt;br&gt;+ Attribute2: Type&lt;/p&gt;" style="align=left;overflow=fill;html=1;dropTarget=0;whiteSpace=wrap;" vertex="1" parent="1">
          <mxGeometry x="3070" y="620" width="180" height="90" as="geometry" />
        </mxCell>
        <mxCell id="Nb-623n4n7A27UwxZiqx-404" value="" style="shape=component;jettyWidth=8;jettyHeight=4;" vertex="1" parent="Nb-623n4n7A27UwxZiqx-403">
          <mxGeometry x="1" width="20" height="20" relative="1" as="geometry">
            <mxPoint x="-24" y="4" as="offset" />
          </mxGeometry>
        </mxCell>
        <mxCell id="Nb-623n4n7A27UwxZiqx-405" value="&lt;p style=&quot;margin:0px;margin-top:6px;text-align:center;&quot;&gt;&amp;lt;&amp;lt;component&amp;gt;&amp;gt;&lt;/p&gt;&lt;p style=&quot;margin:0px;margin-top:6px;text-align:center;&quot;&gt;&lt;b&gt;:SOAP&lt;/b&gt;&lt;/p&gt;&lt;hr size=&quot;1&quot; style=&quot;border-style:solid;&quot;&gt;&lt;p style=&quot;margin:0px;margin-left:8px;&quot;&gt;+ Attribute1: Type&lt;br&gt;+ Attribute2: Type&lt;/p&gt;" style="align=left;overflow=fill;html=1;dropTarget=0;whiteSpace=wrap;" vertex="1" parent="1">
          <mxGeometry x="3070" y="730" width="180" height="90" as="geometry" />
        </mxCell>
        <mxCell id="Nb-623n4n7A27UwxZiqx-406" value="" style="shape=component;jettyWidth=8;jettyHeight=4;" vertex="1" parent="Nb-623n4n7A27UwxZiqx-405">
          <mxGeometry x="1" width="20" height="20" relative="1" as="geometry">
            <mxPoint x="-24" y="4" as="offset" />
          </mxGeometry>
        </mxCell>
        <mxCell id="Nb-623n4n7A27UwxZiqx-407" value="" style="rounded=0;orthogonalLoop=1;jettySize=auto;html=1;endArrow=oval;endFill=0;sketch=0;sourcePerimeterSpacing=0;targetPerimeterSpacing=0;endSize=10;exitX=0;exitY=0.5;exitDx=0;exitDy=0;" edge="1" parent="1" target="Nb-623n4n7A27UwxZiqx-409" source="Nb-623n4n7A27UwxZiqx-401">
          <mxGeometry relative="1" as="geometry">
            <mxPoint x="3357.5" y="535" as="sourcePoint" />
          </mxGeometry>
        </mxCell>
        <mxCell id="Nb-623n4n7A27UwxZiqx-408" value="" style="rounded=0;orthogonalLoop=1;jettySize=auto;html=1;endArrow=halfCircle;endFill=0;endSize=6;strokeWidth=1;sketch=0;exitX=1;exitY=0.75;exitDx=0;exitDy=0;" edge="1" parent="1" source="Nb-623n4n7A27UwxZiqx-369" target="Nb-623n4n7A27UwxZiqx-409">
          <mxGeometry relative="1" as="geometry">
            <mxPoint x="3297.5" y="589" as="sourcePoint" />
            <mxPoint x="3337.5" y="570" as="targetPoint" />
          </mxGeometry>
        </mxCell>
        <mxCell id="Nb-623n4n7A27UwxZiqx-409" value="" style="ellipse;whiteSpace=wrap;html=1;align=center;aspect=fixed;fillColor=none;strokeColor=none;resizable=0;perimeter=centerPerimeter;rotatable=0;allowArrows=0;points=[];outlineConnect=1;" vertex="1" parent="1">
          <mxGeometry x="3010" y="554" width="10" height="10" as="geometry" />
        </mxCell>
        <mxCell id="Nb-623n4n7A27UwxZiqx-412" value="" style="rounded=0;orthogonalLoop=1;jettySize=auto;html=1;endArrow=halfCircle;endFill=0;endSize=6;strokeWidth=1;sketch=0;exitX=1;exitY=0.5;exitDx=0;exitDy=0;" edge="1" parent="1" source="Nb-623n4n7A27UwxZiqx-375" target="Nb-623n4n7A27UwxZiqx-414">
          <mxGeometry relative="1" as="geometry">
            <mxPoint x="3337.5" y="705" as="sourcePoint" />
          </mxGeometry>
        </mxCell>
        <mxCell id="Nb-623n4n7A27UwxZiqx-413" value="" style="rounded=0;orthogonalLoop=1;jettySize=auto;html=1;endArrow=oval;endFill=0;sketch=0;sourcePerimeterSpacing=0;targetPerimeterSpacing=0;endSize=10;exitX=0;exitY=0.5;exitDx=0;exitDy=0;" edge="1" parent="1" source="Nb-623n4n7A27UwxZiqx-405" target="Nb-623n4n7A27UwxZiqx-414">
          <mxGeometry relative="1" as="geometry">
            <mxPoint x="3297.5" y="705" as="sourcePoint" />
          </mxGeometry>
        </mxCell>
        <mxCell id="Nb-623n4n7A27UwxZiqx-414" value="" style="ellipse;whiteSpace=wrap;html=1;align=center;aspect=fixed;fillColor=none;strokeColor=none;resizable=0;perimeter=centerPerimeter;rotatable=0;allowArrows=0;points=[];outlineConnect=1;" vertex="1" parent="1">
          <mxGeometry x="3010" y="770" width="10" height="10" as="geometry" />
        </mxCell>
        <mxCell id="Nb-623n4n7A27UwxZiqx-427" value="" style="fontStyle=1;align=center;verticalAlign=top;childLayout=stackLayout;horizontal=1;horizontalStack=0;resizeParent=1;resizeParentMax=0;resizeLast=0;marginBottom=0;" vertex="1" parent="1">
          <mxGeometry x="2720" y="270" width="210" height="161" as="geometry" />
        </mxCell>
        <mxCell id="Nb-623n4n7A27UwxZiqx-428" value="&amp;lt;&amp;lt;component&amp;gt;&amp;gt;&lt;div&gt;:&lt;b&gt;CommonMachine&lt;/b&gt;&lt;/div&gt;" style="html=1;align=left;spacingLeft=4;verticalAlign=top;strokeColor=none;fillColor=none;whiteSpace=wrap;" vertex="1" parent="Nb-623n4n7A27UwxZiqx-427">
          <mxGeometry width="210" height="40" as="geometry" />
        </mxCell>
        <mxCell id="Nb-623n4n7A27UwxZiqx-429" value="" style="shape=module;jettyWidth=10;jettyHeight=4;" vertex="1" parent="Nb-623n4n7A27UwxZiqx-428">
          <mxGeometry x="1" width="16" height="20" relative="1" as="geometry">
            <mxPoint x="-25" y="9" as="offset" />
          </mxGeometry>
        </mxCell>
        <mxCell id="Nb-623n4n7A27UwxZiqx-430" value="" style="line;strokeWidth=1;fillColor=none;align=left;verticalAlign=middle;spacingTop=-1;spacingLeft=3;spacingRight=3;rotatable=0;labelPosition=right;points=[];portConstraint=eastwest;" vertex="1" parent="Nb-623n4n7A27UwxZiqx-427">
          <mxGeometry y="40" width="210" height="8" as="geometry" />
        </mxCell>
        <mxCell id="Nb-623n4n7A27UwxZiqx-431" value="provided interfaces" style="html=1;align=center;spacingLeft=4;verticalAlign=top;strokeColor=none;fillColor=none;whiteSpace=wrap;" vertex="1" parent="Nb-623n4n7A27UwxZiqx-427">
          <mxGeometry y="48" width="210" height="25" as="geometry" />
        </mxCell>
        <mxCell id="Nb-623n4n7A27UwxZiqx-432" value="Interface1" style="html=1;align=left;spacingLeft=4;verticalAlign=top;strokeColor=none;fillColor=none;whiteSpace=wrap;" vertex="1" parent="Nb-623n4n7A27UwxZiqx-427">
          <mxGeometry y="73" width="210" height="25" as="geometry" />
        </mxCell>
        <mxCell id="Nb-623n4n7A27UwxZiqx-433" value="" style="line;strokeWidth=1;fillColor=none;align=left;verticalAlign=middle;spacingTop=-1;spacingLeft=3;spacingRight=3;rotatable=0;labelPosition=right;points=[];portConstraint=eastwest;" vertex="1" parent="Nb-623n4n7A27UwxZiqx-427">
          <mxGeometry y="98" width="210" height="8" as="geometry" />
        </mxCell>
        <mxCell id="Nb-623n4n7A27UwxZiqx-434" value="required interfaces" style="html=1;align=center;spacingLeft=4;verticalAlign=top;strokeColor=none;fillColor=none;whiteSpace=wrap;" vertex="1" parent="Nb-623n4n7A27UwxZiqx-427">
          <mxGeometry y="106" width="210" height="25" as="geometry" />
        </mxCell>
        <mxCell id="Nb-623n4n7A27UwxZiqx-435" value="Interface2" style="html=1;align=left;spacingLeft=4;verticalAlign=top;strokeColor=none;fillColor=none;whiteSpace=wrap;" vertex="1" parent="Nb-623n4n7A27UwxZiqx-427">
          <mxGeometry y="131" width="210" height="30" as="geometry" />
        </mxCell>
        <mxCell id="Nb-623n4n7A27UwxZiqx-447" value="&lt;span style=&quot;font-weight: normal;&quot;&gt;&amp;lt;&amp;lt;component&amp;gt;&amp;gt;&lt;br&gt;&lt;/span&gt;:DroneAssembly" style="text;align=center;fontStyle=1;verticalAlign=middle;spacingLeft=3;spacingRight=3;strokeColor=none;rotatable=0;points=[[0,0.5],[1,0.5]];portConstraint=eastwest;html=1;" vertex="1" parent="1">
          <mxGeometry x="2590" y="30" width="80" height="26" as="geometry" />
        </mxCell>
        <mxCell id="Nb-623n4n7A27UwxZiqx-580" value="" style="rounded=0;orthogonalLoop=1;jettySize=auto;html=1;endArrow=halfCircle;endFill=0;endSize=6;strokeWidth=1;sketch=0;exitX=1;exitY=0.75;exitDx=0;exitDy=0;" edge="1" target="Nb-623n4n7A27UwxZiqx-582" parent="1" source="Nb-623n4n7A27UwxZiqx-428">
          <mxGeometry relative="1" as="geometry">
            <mxPoint x="3300" y="295" as="sourcePoint" />
          </mxGeometry>
        </mxCell>
        <mxCell id="Nb-623n4n7A27UwxZiqx-581" value="" style="rounded=0;orthogonalLoop=1;jettySize=auto;html=1;endArrow=oval;endFill=0;sketch=0;sourcePerimeterSpacing=0;targetPerimeterSpacing=0;endSize=10;exitX=0;exitY=0.5;exitDx=0;exitDy=0;" edge="1" target="Nb-623n4n7A27UwxZiqx-582" parent="1" source="Nb-623n4n7A27UwxZiqx-395">
          <mxGeometry relative="1" as="geometry">
            <mxPoint x="3260" y="295" as="sourcePoint" />
          </mxGeometry>
        </mxCell>
        <mxCell id="Nb-623n4n7A27UwxZiqx-582" value="" style="ellipse;whiteSpace=wrap;html=1;align=center;aspect=fixed;fillColor=none;strokeColor=none;resizable=0;perimeter=centerPerimeter;rotatable=0;allowArrows=0;points=[];outlineConnect=1;" vertex="1" parent="1">
          <mxGeometry x="3010" y="210" width="10" height="10" as="geometry" />
        </mxCell>
        <mxCell id="Nb-623n4n7A27UwxZiqx-583" value="" style="rounded=0;orthogonalLoop=1;jettySize=auto;html=1;endArrow=halfCircle;endFill=0;endSize=6;strokeWidth=1;sketch=0;exitX=1;exitY=0;exitDx=0;exitDy=0;" edge="1" target="Nb-623n4n7A27UwxZiqx-585" parent="1" source="Nb-623n4n7A27UwxZiqx-432">
          <mxGeometry relative="1" as="geometry">
            <mxPoint x="3400" y="175" as="sourcePoint" />
          </mxGeometry>
        </mxCell>
        <mxCell id="Nb-623n4n7A27UwxZiqx-584" value="" style="rounded=0;orthogonalLoop=1;jettySize=auto;html=1;endArrow=oval;endFill=0;sketch=0;sourcePerimeterSpacing=0;targetPerimeterSpacing=0;endSize=10;exitX=0;exitY=0.5;exitDx=0;exitDy=0;" edge="1" target="Nb-623n4n7A27UwxZiqx-585" parent="1" source="Nb-623n4n7A27UwxZiqx-397">
          <mxGeometry relative="1" as="geometry">
            <mxPoint x="3360" y="175" as="sourcePoint" />
          </mxGeometry>
        </mxCell>
        <mxCell id="Nb-623n4n7A27UwxZiqx-585" value="" style="ellipse;whiteSpace=wrap;html=1;align=center;aspect=fixed;fillColor=none;strokeColor=none;resizable=0;perimeter=centerPerimeter;rotatable=0;allowArrows=0;points=[];outlineConnect=1;" vertex="1" parent="1">
          <mxGeometry x="3010" y="320" width="10" height="10" as="geometry" />
        </mxCell>
        <mxCell id="Nb-623n4n7A27UwxZiqx-586" value="" style="rounded=0;orthogonalLoop=1;jettySize=auto;html=1;endArrow=halfCircle;endFill=0;endSize=6;strokeWidth=1;sketch=0;exitX=1;exitY=0;exitDx=0;exitDy=0;" edge="1" target="Nb-623n4n7A27UwxZiqx-588" parent="1" source="Nb-623n4n7A27UwxZiqx-435">
          <mxGeometry relative="1" as="geometry">
            <mxPoint x="3420" y="265" as="sourcePoint" />
          </mxGeometry>
        </mxCell>
        <mxCell id="Nb-623n4n7A27UwxZiqx-587" value="" style="rounded=0;orthogonalLoop=1;jettySize=auto;html=1;endArrow=oval;endFill=0;sketch=0;sourcePerimeterSpacing=0;targetPerimeterSpacing=0;endSize=10;exitX=0;exitY=0.5;exitDx=0;exitDy=0;" edge="1" target="Nb-623n4n7A27UwxZiqx-588" parent="1" source="Nb-623n4n7A27UwxZiqx-399">
          <mxGeometry relative="1" as="geometry">
            <mxPoint x="3380" y="265" as="sourcePoint" />
          </mxGeometry>
        </mxCell>
        <mxCell id="Nb-623n4n7A27UwxZiqx-588" value="" style="ellipse;whiteSpace=wrap;html=1;align=center;aspect=fixed;fillColor=none;strokeColor=none;resizable=0;perimeter=centerPerimeter;rotatable=0;allowArrows=0;points=[];outlineConnect=1;" vertex="1" parent="1">
          <mxGeometry x="3010" y="430" width="10" height="10" as="geometry" />
        </mxCell>
        <mxCell id="Nb-623n4n7A27UwxZiqx-590" value="" style="rounded=0;orthogonalLoop=1;jettySize=auto;html=1;endArrow=halfCircle;endFill=0;endSize=6;strokeWidth=1;sketch=0;exitX=1;exitY=1;exitDx=0;exitDy=0;" edge="1" target="Nb-623n4n7A27UwxZiqx-592" parent="1" source="Nb-623n4n7A27UwxZiqx-372">
          <mxGeometry relative="1" as="geometry">
            <mxPoint x="3140" y="625" as="sourcePoint" />
          </mxGeometry>
        </mxCell>
        <mxCell id="Nb-623n4n7A27UwxZiqx-591" value="" style="rounded=0;orthogonalLoop=1;jettySize=auto;html=1;endArrow=oval;endFill=0;sketch=0;sourcePerimeterSpacing=0;targetPerimeterSpacing=0;endSize=10;exitX=0;exitY=0.5;exitDx=0;exitDy=0;" edge="1" target="Nb-623n4n7A27UwxZiqx-592" parent="1" source="Nb-623n4n7A27UwxZiqx-403">
          <mxGeometry relative="1" as="geometry">
            <mxPoint x="3100" y="625" as="sourcePoint" />
          </mxGeometry>
        </mxCell>
        <mxCell id="Nb-623n4n7A27UwxZiqx-592" value="" style="ellipse;whiteSpace=wrap;html=1;align=center;aspect=fixed;fillColor=none;strokeColor=none;resizable=0;perimeter=centerPerimeter;rotatable=0;allowArrows=0;points=[];outlineConnect=1;" vertex="1" parent="1">
          <mxGeometry x="3010" y="660" width="10" height="10" as="geometry" />
        </mxCell>
        <mxCell id="Nb-623n4n7A27UwxZiqx-593" value="" style="html=1;rounded=0;" vertex="1" parent="1">
          <mxGeometry x="2810" y="560" width="30" height="30" as="geometry" />
        </mxCell>
        <mxCell id="Nb-623n4n7A27UwxZiqx-596" value="" style="html=1;rounded=0;" vertex="1" parent="1">
          <mxGeometry x="2810" y="431" width="30" height="30" as="geometry" />
        </mxCell>
        <mxCell id="Nb-623n4n7A27UwxZiqx-599" value="" style="rounded=0;orthogonalLoop=1;jettySize=auto;html=1;endArrow=halfCircle;endFill=0;endSize=6;strokeWidth=1;sketch=0;exitX=0.5;exitY=1;exitDx=0;exitDy=0;" edge="1" target="Nb-623n4n7A27UwxZiqx-601" parent="1" source="Nb-623n4n7A27UwxZiqx-394">
          <mxGeometry relative="1" as="geometry">
            <mxPoint x="2890" y="315" as="sourcePoint" />
          </mxGeometry>
        </mxCell>
        <mxCell id="Nb-623n4n7A27UwxZiqx-600" value="" style="rounded=0;orthogonalLoop=1;jettySize=auto;html=1;endArrow=oval;endFill=0;sketch=0;sourcePerimeterSpacing=0;targetPerimeterSpacing=0;endSize=10;exitX=0.5;exitY=0;exitDx=0;exitDy=0;" edge="1" target="Nb-623n4n7A27UwxZiqx-601" parent="1" source="Nb-623n4n7A27UwxZiqx-428">
          <mxGeometry relative="1" as="geometry">
            <mxPoint x="2850" y="315" as="sourcePoint" />
          </mxGeometry>
        </mxCell>
        <mxCell id="Nb-623n4n7A27UwxZiqx-601" value="" style="ellipse;whiteSpace=wrap;html=1;align=center;aspect=fixed;fillColor=none;strokeColor=none;resizable=0;perimeter=centerPerimeter;rotatable=0;allowArrows=0;points=[];outlineConnect=1;" vertex="1" parent="1">
          <mxGeometry x="2820" y="240" width="10" height="10" as="geometry" />
        </mxCell>
        <mxCell id="Nb-623n4n7A27UwxZiqx-607" value="" style="rounded=0;orthogonalLoop=1;jettySize=auto;html=1;endArrow=halfCircle;endFill=0;endSize=6;strokeWidth=1;sketch=0;exitX=0.5;exitY=1;exitDx=0;exitDy=0;" edge="1" target="Nb-623n4n7A27UwxZiqx-609" parent="1" source="Nb-623n4n7A27UwxZiqx-596">
          <mxGeometry relative="1" as="geometry">
            <mxPoint x="2940" y="445" as="sourcePoint" />
          </mxGeometry>
        </mxCell>
        <mxCell id="Nb-623n4n7A27UwxZiqx-608" value="" style="rounded=0;orthogonalLoop=1;jettySize=auto;html=1;endArrow=oval;endFill=0;sketch=0;sourcePerimeterSpacing=0;targetPerimeterSpacing=0;endSize=10;exitX=0.5;exitY=0;exitDx=0;exitDy=0;" edge="1" target="Nb-623n4n7A27UwxZiqx-609" parent="1" source="Nb-623n4n7A27UwxZiqx-593">
          <mxGeometry relative="1" as="geometry">
            <mxPoint x="2900" y="445" as="sourcePoint" />
          </mxGeometry>
        </mxCell>
        <mxCell id="Nb-623n4n7A27UwxZiqx-609" value="" style="ellipse;whiteSpace=wrap;html=1;align=center;aspect=fixed;fillColor=none;strokeColor=none;resizable=0;perimeter=centerPerimeter;rotatable=0;allowArrows=0;points=[];outlineConnect=1;" vertex="1" parent="1">
          <mxGeometry x="2820" y="504" width="10" height="10" as="geometry" />
        </mxCell>
        <mxCell id="Nb-623n4n7A27UwxZiqx-612" value="" style="html=1;rounded=0;" vertex="1" parent="1">
          <mxGeometry x="2540" y="385.5" width="30" height="30" as="geometry" />
        </mxCell>
        <mxCell id="Nb-623n4n7A27UwxZiqx-615" value="" style="html=1;rounded=0;" vertex="1" parent="1">
          <mxGeometry x="2430" y="385.5" width="30" height="30" as="geometry" />
        </mxCell>
        <mxCell id="Nb-623n4n7A27UwxZiqx-618" value="" style="rounded=0;orthogonalLoop=1;jettySize=auto;html=1;endArrow=halfCircle;endFill=0;endSize=6;strokeWidth=1;sketch=0;exitX=1;exitY=0.5;exitDx=0;exitDy=0;" edge="1" target="Nb-623n4n7A27UwxZiqx-620" parent="1" source="Nb-623n4n7A27UwxZiqx-615">
          <mxGeometry relative="1" as="geometry">
            <mxPoint x="2540" y="385" as="sourcePoint" />
          </mxGeometry>
        </mxCell>
        <mxCell id="Nb-623n4n7A27UwxZiqx-619" value="" style="rounded=0;orthogonalLoop=1;jettySize=auto;html=1;endArrow=oval;endFill=0;sketch=0;sourcePerimeterSpacing=0;targetPerimeterSpacing=0;endSize=10;exitX=0;exitY=0.5;exitDx=0;exitDy=0;" edge="1" target="Nb-623n4n7A27UwxZiqx-620" parent="1" source="Nb-623n4n7A27UwxZiqx-612">
          <mxGeometry relative="1" as="geometry">
            <mxPoint x="2500" y="385" as="sourcePoint" />
          </mxGeometry>
        </mxCell>
        <mxCell id="Nb-623n4n7A27UwxZiqx-620" value="" style="ellipse;whiteSpace=wrap;html=1;align=center;aspect=fixed;fillColor=none;strokeColor=none;resizable=0;perimeter=centerPerimeter;rotatable=0;allowArrows=0;points=[];outlineConnect=1;" vertex="1" parent="1">
          <mxGeometry x="2500" y="395" width="10" height="10" as="geometry" />
        </mxCell>
        <mxCell id="Nb-623n4n7A27UwxZiqx-621" value="" style="html=1;rounded=0;" vertex="1" parent="1">
          <mxGeometry x="2690" y="335.5" width="30" height="30" as="geometry" />
        </mxCell>
        <mxCell id="Nb-623n4n7A27UwxZiqx-623" value="" style="html=1;rounded=0;" vertex="1" parent="1">
          <mxGeometry x="2690" y="121.5" width="30" height="30" as="geometry" />
        </mxCell>
        <mxCell id="Nb-623n4n7A27UwxZiqx-628" value="" style="rounded=0;orthogonalLoop=1;jettySize=auto;html=1;endArrow=halfCircle;endFill=0;endSize=6;strokeWidth=1;sketch=0;exitX=1;exitY=0.5;exitDx=0;exitDy=0;" edge="1" target="Nb-623n4n7A27UwxZiqx-630" parent="1" source="Nb-623n4n7A27UwxZiqx-612">
          <mxGeometry relative="1" as="geometry">
            <mxPoint x="2770" y="305" as="sourcePoint" />
          </mxGeometry>
        </mxCell>
        <mxCell id="Nb-623n4n7A27UwxZiqx-629" value="" style="rounded=0;orthogonalLoop=1;jettySize=auto;html=1;endArrow=oval;endFill=0;sketch=0;sourcePerimeterSpacing=0;targetPerimeterSpacing=0;endSize=10;exitX=0;exitY=0.5;exitDx=0;exitDy=0;" edge="1" target="Nb-623n4n7A27UwxZiqx-630" parent="1" source="Nb-623n4n7A27UwxZiqx-623">
          <mxGeometry relative="1" as="geometry">
            <mxPoint x="2730" y="305" as="sourcePoint" />
          </mxGeometry>
        </mxCell>
        <mxCell id="Nb-623n4n7A27UwxZiqx-630" value="" style="ellipse;whiteSpace=wrap;html=1;align=center;aspect=fixed;fillColor=none;strokeColor=none;resizable=0;perimeter=centerPerimeter;rotatable=0;allowArrows=0;points=[];outlineConnect=1;" vertex="1" parent="1">
          <mxGeometry x="2640" y="131.5" width="10" height="10" as="geometry" />
        </mxCell>
        <mxCell id="Nb-623n4n7A27UwxZiqx-631" value="" style="rounded=0;orthogonalLoop=1;jettySize=auto;html=1;endArrow=halfCircle;endFill=0;endSize=6;strokeWidth=1;sketch=0;exitX=1;exitY=0.5;exitDx=0;exitDy=0;" edge="1" target="Nb-623n4n7A27UwxZiqx-633" parent="1" source="Nb-623n4n7A27UwxZiqx-612">
          <mxGeometry relative="1" as="geometry">
            <mxPoint x="2770" y="305" as="sourcePoint" />
          </mxGeometry>
        </mxCell>
        <mxCell id="Nb-623n4n7A27UwxZiqx-632" value="" style="rounded=0;orthogonalLoop=1;jettySize=auto;html=1;endArrow=oval;endFill=0;sketch=0;sourcePerimeterSpacing=0;targetPerimeterSpacing=0;endSize=10;exitX=0;exitY=0.5;exitDx=0;exitDy=0;" edge="1" target="Nb-623n4n7A27UwxZiqx-633" parent="1" source="Nb-623n4n7A27UwxZiqx-621">
          <mxGeometry relative="1" as="geometry">
            <mxPoint x="2730" y="305" as="sourcePoint" />
          </mxGeometry>
        </mxCell>
        <mxCell id="Nb-623n4n7A27UwxZiqx-633" value="" style="ellipse;whiteSpace=wrap;html=1;align=center;aspect=fixed;fillColor=none;strokeColor=none;resizable=0;perimeter=centerPerimeter;rotatable=0;allowArrows=0;points=[];outlineConnect=1;" vertex="1" parent="1">
          <mxGeometry x="2640" y="345.5" width="10" height="10" as="geometry" />
        </mxCell>
      </root>
    </mxGraphModel>
  </diagram>
</mxfile>
